<?xml version="1.0"?>
<svg xmlns="http://www.w3.org/2000/svg" xmlns:xlink="http://www.w3.org/1999/xlink" width="1344.57" height="420">
  <g transform="translate(-395.43307086614163 -140)">
    <path d="M1720 350c0 104.93-292.04 190-652.28 190-360.25 0-652.3-85.07-652.3-190s292.05-190 652.3-190c360.24 0 652.28 85.07 652.28 190z" stroke="#3a414a" fill="#edf5ff"/>
    <use xlink:href="#a" transform="matrix(1,0,0,1,420.43307086614163,165) translate(1113.99 191.21527777777777)"/>
    <use xlink:href="#b" transform="matrix(1,0,0,1,420.43307086614163,165) translate(1174.4838271604938 191.21527777777777)"/>
    <use xlink:href="#c" transform="matrix(1,0,0,1,420.43307086614163,165) translate(1222 191.21527777777777)"/>
    <use xlink:href="#c" transform="matrix(1,0,0,1,420.43307086614163,165) translate(1258 191.21527777777777)"/>
    <use xlink:href="#d" transform="matrix(1,0,0,1,420.43307086614163,165) translate(1294 191.21527777777777)"/>
    <path d="M1500 350c0 104.93-241.77 190-540 190s-540-85.07-540-190 241.77-190 540-190 540 85.07 540 190z" stroke="#3a414a" fill="#f2f3f5"/>
    <use xlink:href="#e" transform="matrix(1,0,0,1,425,165) translate(924.99 191.21527777777777)"/>
    <use xlink:href="#c" transform="matrix(1,0,0,1,425,165) translate(961 191.21527777777777)"/>
    <use xlink:href="#c" transform="matrix(1,0,0,1,425,165) translate(997 191.21527777777777)"/>
    <use xlink:href="#c" transform="matrix(1,0,0,1,425,165) translate(1033 191.21527777777777)"/>
    <use xlink:href="#d" transform="matrix(1,0,0,1,425,165) translate(1069 191.21527777777777)"/>
    <path d="M1460 350c0 104.93-232.8 190-520 190s-520-85.07-520-190 232.8-190 520-190 520 85.07 520 190z" stroke="#3a414a" fill="#f2f3f5"/>
    <use xlink:href="#e" transform="matrix(1,0,0,1,425,165) translate(884.99 191.68402777777777)"/>
    <use xlink:href="#c" transform="matrix(1,0,0,1,425,165) translate(921 191.68402777777777)"/>
    <use xlink:href="#c" transform="matrix(1,0,0,1,425,165) translate(957 191.68402777777777)"/>
    <use xlink:href="#c" transform="matrix(1,0,0,1,425,165) translate(993 191.68402777777777)"/>
    <use xlink:href="#d" transform="matrix(1,0,0,1,425,165) translate(1029 191.68402777777777)"/>
    <path d="M1420 350c0 104.93-224.88 190-502.28 190s-502.3-85.07-502.3-190 224.9-190 502.3-190S1420 245.07 1420 350z" stroke="#3a414a" fill="#f2f3f5"/>
    <g>
      <use xlink:href="#e" transform="matrix(1,0,0,1,420.43307086614163,165) translate(849.99 191.21527777777777)"/>
      <use xlink:href="#c" transform="matrix(1,0,0,1,420.43307086614163,165) translate(886 191.21527777777777)"/>
      <use xlink:href="#c" transform="matrix(1,0,0,1,420.43307086614163,165) translate(922 191.21527777777777)"/>
      <use xlink:href="#c" transform="matrix(1,0,0,1,420.43307086614163,165) translate(958 191.21527777777777)"/>
      <use xlink:href="#d" transform="matrix(1,0,0,1,420.43307086614163,165) translate(994 191.21527777777777)"/>
    </g>
    <path d="M1380 350c0 104.93-215.93 190-482.28 190-266.36 0-482.3-85.07-482.3-190s215.94-190 482.3-190c266.35 0 482.28 85.07 482.28 190z" stroke="#3a414a" fill="#f2f3f5"/>
    <g>
      <use xlink:href="#e" transform="matrix(1,0,0,1,420.43307086614163,165) translate(809.99 191.21527777777777)"/>
      <use xlink:href="#c" transform="matrix(1,0,0,1,420.43307086614163,165) translate(846 191.21527777777777)"/>
      <use xlink:href="#c" transform="matrix(1,0,0,1,420.43307086614163,165) translate(882 191.21527777777777)"/>
      <use xlink:href="#c" transform="matrix(1,0,0,1,420.43307086614163,165) translate(918 191.21527777777777)"/>
      <use xlink:href="#d" transform="matrix(1,0,0,1,420.43307086614163,165) translate(954 191.21527777777777)"/>
    </g>
    <path d="M1340 350c0 104.93-205.95 190-460 190s-460-85.07-460-190 205.95-190 460-190 460 85.07 460 190z" stroke="#3a414a" fill="#f2f3f5"/>
    <g>
      <use xlink:href="#e" transform="matrix(1,0,0,1,425,165) translate(764.99 191.68402777777777)"/>
      <use xlink:href="#c" transform="matrix(1,0,0,1,425,165) translate(801 191.68402777777777)"/>
      <use xlink:href="#c" transform="matrix(1,0,0,1,425,165) translate(837 191.68402777777777)"/>
      <use xlink:href="#c" transform="matrix(1,0,0,1,425,165) translate(873 191.68402777777777)"/>
      <use xlink:href="#d" transform="matrix(1,0,0,1,425,165) translate(909 191.68402777777777)"/>
    </g>
    <path d="M1280 350c0 104.93-193.54 190-432.28 190-238.75 0-432.3-85.07-432.3-190s193.55-190 432.3-190c238.74 0 432.28 85.07 432.28 190z" stroke="#3a414a" fill="#edf5ff"/>
    <g>
      <use xlink:href="#a" transform="matrix(1,0,0,1,420.43307086614163,165) translate(391.08024691358025 191.21527777777777)"/>
      <use xlink:href="#f" transform="matrix(1,0,0,1,420.43307086614163,165) translate(451.5740740740741 191.21527777777777)"/>
    </g>
    <path d="M700 350c0 44.18-35.82 80-80 80s-80-35.82-80-80 35.82-80 80-80 80 35.82 80 80z" stroke="#3a414a" fill="#cfe4ff"/>
    <g>
      <use xlink:href="#a" transform="matrix(1,0,0,1,545,275) translate(38.58024691358025 78.71527777777777)"/>
      <use xlink:href="#g" transform="matrix(1,0,0,1,545,275) translate(99.07407407407408 78.71527777777777)"/>
    </g>
    <defs>
      <path fill="#3a414a" d="M135-143c-3-34-86-38-87 0 15 53 115 12 119 90S17 21 10-45l28-5c4 36 97 45 98 0-10-56-113-15-118-90-4-57 82-63 122-42 12 7 21 19 24 35" id="h"/>
      <path fill="#3a414a" d="M59-47c-2 24 18 29 38 22v24C64 9 27 4 27-40v-127H5v-23h24l9-43h21v43h35v23H59v120" id="i"/>
      <path fill="#3a414a" d="M141-36C126-15 110 5 73 4 37 3 15-17 15-53c-1-64 63-63 125-63 3-35-9-54-41-54-24 1-41 7-42 31l-33-3c5-37 33-52 76-52 45 0 72 20 72 64v82c-1 20 7 32 28 27v20c-31 9-61-2-59-35zM48-53c0 20 12 33 32 33 41-3 63-29 60-74-43 2-92-5-92 41" id="j"/>
      <path fill="#3a414a" d="M177-190C167-65 218 103 67 71c-23-6-38-20-44-43l32-5c15 47 100 32 89-28v-30C133-14 115 1 83 1 29 1 15-40 15-95c0-56 16-97 71-98 29-1 48 16 59 35 1-10 0-23 2-32h30zM94-22c36 0 50-32 50-73 0-42-14-75-50-75-39 0-46 34-46 75s6 73 46 73" id="k"/>
      <path fill="#3a414a" d="M100-194c63 0 86 42 84 106H49c0 40 14 67 53 68 26 1 43-12 49-29l28 8c-11 28-37 45-77 45C44 4 14-33 15-96c1-61 26-98 85-98zm52 81c6-60-76-77-97-28-3 7-6 17-6 28h103" id="l"/>
      <g id="a">
        <use transform="matrix(0.06172839506172839,0,0,0.06172839506172839,0,0)" xlink:href="#h"/>
        <use transform="matrix(0.06172839506172839,0,0,0.06172839506172839,11.11111111111111,0)" xlink:href="#i"/>
        <use transform="matrix(0.06172839506172839,0,0,0.06172839506172839,17.28395061728395,0)" xlink:href="#j"/>
        <use transform="matrix(0.06172839506172839,0,0,0.06172839506172839,29.629629629629626,0)" xlink:href="#k"/>
        <use transform="matrix(0.06172839506172839,0,0,0.06172839506172839,41.9753086419753,0)" xlink:href="#l"/>
      </g>
      <path fill="#3a414a" d="M117-194c89-4 53 116 60 194h-32v-121c0-31-8-49-39-48C34-167 62-67 57 0H25l-1-190h30c1 10-1 24 2 32 11-22 29-35 61-36" id="m"/>
      <use transform="matrix(0.06172839506172839,0,0,0.06172839506172839,0,0)" xlink:href="#m" id="b"/>
      <path fill="#3a414a" d="M33 0v-38h34V0H33" id="n"/>
      <g id="e">
        <use transform="matrix(0.06172839506172839,0,0,0.06172839506172839,0,0)" xlink:href="#n"/>
        <use transform="matrix(0.06172839506172839,0,0,0.06172839506172839,6.172839506172839,0)" xlink:href="#n"/>
        <use transform="matrix(0.06172839506172839,0,0,0.06172839506172839,12.345679012345679,0)" xlink:href="#n"/>
      </g>
      <path fill="#3a414a" d="M27 0v-27h64v-190l-56 39v-29l58-41h29v221h61V0H27" id="o"/>
      <use transform="matrix(0.06172839506172839,0,0,0.06172839506172839,0,0)" xlink:href="#o" id="f"/>
      <path fill="#3a414a" d="M101-251c68 0 85 55 85 127S166 4 100 4C33 4 14-52 14-124c0-73 17-127 87-127zm-1 229c47 0 54-49 54-102s-4-102-53-102c-51 0-55 48-55 102 0 53 5 102 54 102" id="p"/>
      <use transform="matrix(0.06172839506172839,0,0,0.06172839506172839,0,0)" xlink:href="#p" id="g"/>
    </defs>
  </g>
</svg>
